<svg width="1037" height="361" viewBox="0 0 1037 361" fill="none" xmlns="http://www.w3.org/2000/svg">
<g clip-path="url(#clip0_194_92)">
<path d="M1037 0H0V361H1037V0Z" fill="black"/>
<path d="M620.69 306.97V68.97L763.46 68.95C817.62 68.8 900.86 98.49 904.71 162.2C905.62 177.3 905.72 199.68 904.68 214.72C900.42 276.39 821.3 305.81 768.46 307L620.69 306.98V306.97ZM725.69 240.97C746.86 239.99 771.42 245.29 788.95 230.48C796.02 224.5 799.57 217.58 800.21 208.24C800.99 196.81 800.93 179.66 800.21 168.2C799.63 158.94 796.06 151.4 788.92 145.49C771.37 130.98 746.76 135.84 725.68 134.98V240.98L725.69 240.97Z" fill="white"/>
<path d="M320.69 68.97V134.97H177.69V156.97H297.69V222.22L296.94 222.97H177.69V306.97H73.1899V68.97H320.69Z" fill="white"/>
<path d="M609.69 68.97V134.97H522.69V306.97H418.19V134.97H333.19V68.97H609.69Z" fill="white"/>
<path d="M945.59 13.61C987.12 10.77 1027.77 45.85 1012.7 89.22C995.17 139.66 916.17 143.11 891.93 96.47C871.09 56.37 904.47 16.42 945.59 13.61ZM950.58 29.6C921.16 29.81 892.2 55.09 904.95 85.96C919.61 121.44 979.03 122.43 995.63 88.16C1010.76 56.91 981.24 29.39 950.58 29.6Z" fill="#FFD300"/>
<path d="M911.19 81.47H939.19C937 90.75 951.62 91.4 957.18 89.21C964.22 86.44 957.86 82.84 953.8 81.61C940.41 77.56 911.53 77.66 912.69 56.73C914.32 27.4 986.09 28.11 989.13 54.77C989.29 56.17 989.52 59.82 987.86 60.38H960.01L959.26 59.64C960.14 52.52 953.48 51.82 947.94 52.46C942.4 53.1 939.27 57.53 945.7 60.2C958.39 65.47 987.48 62.7 989.69 82.71C992.42 107.37 951.97 109.81 935.59 106.31C924.38 103.92 908.18 95.04 911.19 81.46V81.47Z" fill="#FFD300"/>
</g>
<defs>
<clipPath id="clip0_194_92">
<rect width="1037" height="361" fill="white"/>
</clipPath>
</defs>
</svg>
