<svg width="36" height="64" viewBox="0 0 36 64" fill="none" xmlns="http://www.w3.org/2000/svg">
<g clip-path="url(#clip0_191_20)">
<path d="M0 15.9026H4.6477V64H0V15.9026Z" fill="white"/>
<path d="M8.11377 0H12.7615V41.4593H20.4169V45.7164H8.11377V0Z" fill="white"/>
<path d="M23.9546 44.23C22.7873 42.9529 22.2001 41.149 22.2001 38.8185V22.8004C22.2001 20.4699 22.7873 18.6661 23.9546 17.3889C25.1219 16.1118 26.8263 15.4697 29.0463 15.4697C31.2663 15.4697 32.9707 16.1118 34.138 17.3889C35.3053 18.6661 35.8925 20.4699 35.8925 22.8004V30.8095H31.4955V22.5046C31.4955 20.6575 30.7221 19.7339 29.168 19.7339C27.614 19.7339 26.8406 20.6575 26.8406 22.5046V39.1648C26.8406 40.9831 27.614 41.8922 29.168 41.8922C30.7221 41.8922 31.4955 40.9831 31.4955 39.1648L31.5957 38.7752H35.9928L35.8925 38.8257C35.8925 41.1563 35.3053 42.9601 34.138 44.2372C32.9707 45.5143 31.2663 46.1565 29.0463 46.1565C26.8263 46.1565 25.1219 45.5143 23.9546 44.2372V44.23Z" fill="white"/>
</g>
<defs>
<clipPath id="clip0_191_20">
<rect width="36" height="64" fill="white"/>
</clipPath>
</defs>
</svg>
