<?xml version="1.0" encoding="UTF-8"?>
<svg id="Calque_2" data-name="Calque 2" xmlns="http://www.w3.org/2000/svg" viewBox="0 0 14.26 23.46">
  <defs>
    <style>
      .cls-1 {
        fill: #fff;
      }
    </style>
  </defs>
  <g id="Calque_1-2" data-name="Calque 1">
    <g>
      <path class="cls-1" d="M3.25,2.82l1.84-2.82v14.62h3.02v1.67H3.25V2.82Z"/>
      <g>
        <path class="cls-1" d="M0,4.6h1.84l.09,18.31-1.92-3.75V4.6Z"/>
        <polygon class="cls-1" points="1.81 23.46 0 19.95 0 23.46 1.81 23.46"/>
      </g>
      <circle class="cls-1" cx="3.43" cy=".94" r=".6"/>
      <path class="cls-1" d="M12.52,13.57l-.04.15c0,.71-.31,1.07-.92,1.07s-.92-.36-.92-1.07v-4.36s0,0,0,0v-2.17c0-.72.31-1.09.92-1.09s.92.36.92,1.09v3.26h1.74v-3.14c0-.91-.23-1.62-.69-2.12s-1.13-.75-2.01-.75-1.55.25-2.01.75c-.46.5-.69,1.21-.69,2.12v6.28c0,.91.23,1.62.69,2.12.46.5,1.13.75,2.01.75s1.55-.25,2.01-.75c.46-.5.69-1.21.69-2.12l.04-.02h-1.74Z"/>
      <polygon class="cls-1" points="13.35 11.43 12.43 13.02 14.26 13.02 13.35 11.43"/>
    </g>
  </g>
</svg>