<svg width="1384" height="289" viewBox="0 0 1384 289" fill="none" xmlns="http://www.w3.org/2000/svg">
<g clip-path="url(#clip0_30_98)">
<path d="M0.919764 291.005L60.5205 290.461L0 184.557L0.919764 291.005Z" fill="#0040FF"/>
<path d="M1183.98 205.774L1183.8 291.005L1269.52 218.105L1183.98 205.774Z" fill="#FF2E2E"/>
<path d="M392.923 61.4251L424.747 10.105H359.75L392.923 61.4251Z" fill="#0040FF"/>
<path d="M178.741 73.0311V224.15C178.741 242.345 190.268 251.472 213.385 251.472V291.066C180.58 291.066 155.379 285.021 137.965 272.871C120.55 260.721 111.843 243.614 111.843 221.43V73.0311M213.447 6.17603C246.313 6.17603 271.392 12.2208 288.867 24.3708C306.281 36.5207 314.989 53.6274 314.989 75.8117V224.452L248.091 224.211V73.0311C248.091 54.8363 236.563 45.7088 213.447 45.7088" fill="white"/>
<path d="M383.051 272.992C366.005 261.023 357.482 243.795 357.482 221.369L357.849 70.2504H424.747L424.379 224.513C424.379 234.003 427.322 240.894 433.209 245.065C439.095 249.296 447.496 251.412 458.472 251.412C469.448 251.412 477.848 249.296 483.735 245.065C489.621 240.834 492.564 234.003 492.564 224.513L489.498 10.105H556.641L557.009 221.369C557.009 243.795 548.486 261.023 531.44 272.992C514.393 285.021 489.682 291.005 457.245 291.005C424.808 291.005 400.097 285.021 383.051 272.992Z" fill="white"/>
<path d="M604.408 132.995L671.305 10.105V247.483H697.549L781.37 287.076H604.408V132.995Z" fill="white"/>
<path d="M1183.8 91.1654V9.62161L1323.17 154.394H1324.4V9.62161H1384V291.005L1183.8 91.1654Z" fill="white"/>
<path d="M1027.32 10.105L1141.98 287.016H1075.08L1027.32 150.585L974.766 287.016H912.713L1027.32 10.105Z" fill="white"/>
<path d="M613.851 81.3729C626.279 81.3729 636.354 71.4407 636.354 59.1886C636.354 46.9366 626.279 37.0044 613.851 37.0044C601.422 37.0044 591.347 46.9366 591.347 59.1886C591.347 71.4407 601.422 81.3729 613.851 81.3729Z" fill="#FF2E2E"/>
<path d="M1046.51 241.74H1000.52V287.076H1046.51V241.74Z" fill="#0040FF"/>
<path d="M199.098 8.65442L158.077 35.7349L116.994 62.8759H199.098V8.65442Z" fill="#FF2E2E"/>
<path d="M314.988 221.37C314.988 243.554 306.281 260.66 288.867 272.81C271.453 284.96 246.313 291.005 213.447 291.005V251.412C236.563 251.412 248.091 242.284 248.091 224.09" fill="white"/>
<path d="M0 4H66.8975V293L0 172.286V4Z" fill="white"/>
<path d="M880.46 10.3469H820.859L880.46 126.89V10.3469Z" fill="#FF2E2E"/>
<path d="M813.623 9.8634L880.521 139.644V287.318H813.623V9.8634Z" fill="white"/>
</g>
<defs>
<clipPath id="clip0_30_98">
<rect width="1384" height="289" fill="white"/>
</clipPath>
</defs>
</svg>
