<svg width="50" height="89" viewBox="0 0 50 89" fill="none" xmlns="http://www.w3.org/2000/svg">
<g clip-path="url(#clip0_30_115)">
<path d="M0 22.1145H6.45514V89H0V22.1145Z" fill="white"/>
<path d="M11.2692 0H17.7243V57.6543H28.3569V63.5743H11.2692V0Z" fill="white"/>
<path d="M33.2703 61.5073C31.6491 59.7313 30.8335 57.2229 30.8335 53.982V31.7069C30.8335 28.466 31.6491 25.9575 33.2703 24.1815C34.8916 22.4055 37.2588 21.5125 40.3422 21.5125C43.4255 21.5125 45.7927 22.4055 47.414 24.1815C49.0352 25.9575 49.8508 28.466 49.8508 31.7069V42.8444H43.7438V31.2955C43.7438 28.7268 42.6696 27.4425 40.5112 27.4425C38.3529 27.4425 37.2787 28.7268 37.2787 31.2955V54.4636C37.2787 56.9921 38.3529 58.2564 40.5112 58.2564C42.6696 58.2564 43.7438 56.9921 43.7438 54.4636L43.883 53.9218H49.99L49.8508 53.992C49.8508 57.2329 49.0352 59.7414 47.414 61.5174C45.7927 63.2934 43.4255 64.1864 40.3422 64.1864C37.2588 64.1864 34.8916 63.2934 33.2703 61.5174V61.5073Z" fill="white"/>
</g>
<defs>
<clipPath id="clip0_30_115">
<rect width="50" height="89" fill="white"/>
</clipPath>
</defs>
</svg>
